# xmcd CD database file
# Copyright (C) 1997 Ti Kan
#
# Track frame offsets:
#  150
#  16232
#  30187
#  45555
#  57580
#  72790
#  90185
#  105115
#  126407
#  138567
#  151472
#  165417
#
# Disc length: 2337 seconds
#
# Revision: 2
# Processed by: cddbd v1.4PL0 Copyright (c) Steve Scherf et al.
# Submitted via: Gronk 1.4
#
DISCID=8a091f0c
DTITLE=The Vidalias - Stayin' in the Doghouse
DYEAR=1900
DGENRE=country
TTITLE0=Misery Loves Company
TTITLE1=Body and Soul
TTITLE2=Thunder and Rain
TTITLE3=Whole Lotta Doin' Without
TTITLE4=Fashion Lasts Forever
TTITLE5=What a Nice Surprise
TTITLE6=Whose Side Are you On
TTITLE7=Such a Mystery
TTITLE8=Lonely Sundown
TTITLE9=Questioningly
TTITLE10=All Over Me
TTITLE11=Coffee Break
EXTD=
EXTT0=
EXTT1=
EXTT2=
EXTT3=
EXTT4=
EXTT5=
EXTT6=
EXTT7=
EXTT8=
EXTT9=
EXTT10=
EXTT11=
PLAYORDER=
